<svg width="75" height="75" viewBox="0 0 75 75" fill="none" xmlns="http://www.w3.org/2000/svg">
<path fill-rule="evenodd" clip-rule="evenodd" d="M14.448 37.8302C14.7326 40.0658 15.0618 42.4774 15.3455 44.8958C16.0469 50.8994 15.4854 56.7305 12.9462 62.2906C12.8681 62.461 12.7891 62.6304 12.7111 62.8008C12.3513 63.5802 11.8631 64.2369 10.8999 63.8001C9.94155 63.3671 10.11 62.5838 10.4583 61.791C10.8486 60.8992 11.234 60.0017 11.569 59.089C13.5267 53.7489 13.5867 48.2469 12.5855 42.7601C9.97776 28.4596 18.4404 15.6575 32.6679 12.6339C36.1673 11.8906 39.6755 12.0371 43.1654 12.7938C43.3481 12.8328 43.5271 12.8908 43.706 12.9441C44.4398 13.1573 44.7529 13.6532 44.6206 14.3936C44.4912 15.1255 43.9658 15.3824 43.292 15.2939C42.2537 15.1588 41.2248 14.9294 40.1846 14.8095C28.0863 13.4038 17.227 21.3669 14.9116 33.3757C14.6442 34.769 14.6128 36.2061 14.4491 37.8297L14.448 37.8302Z" fill="#21418A"/>
<path fill-rule="evenodd" clip-rule="evenodd" d="M34.0094 49.4105C33.8153 57.505 31.9223 65.1198 28.3608 72.3377C27.984 73.1 27.5214 73.7358 26.5392 73.337C25.7408 73.0144 25.6132 72.3101 26.149 71.2356C29.4438 64.6163 31.3425 57.6277 31.2606 50.2166C31.2216 46.5925 30.8342 42.9549 30.3479 39.3546C29.913 36.1329 30.8476 33.1722 33.382 31.5361C35.9831 29.8592 38.6861 29.8097 41.3478 31.4257C43.0686 32.4698 44.2764 34.0315 44.5332 36.0055C45.1166 40.4634 45.5297 44.9442 45.9218 49.4209C45.9665 49.9272 45.582 50.6791 45.1575 50.976C44.4104 51.5032 43.571 50.8018 43.5063 49.6902C43.3816 47.5517 43.355 45.4055 43.138 43.2812C42.9115 41.0456 42.6079 38.8082 42.1606 36.6076C41.5991 33.8496 39.0702 32.282 36.4255 32.876C33.7615 33.4766 32.3389 35.9064 32.7538 38.6939C33.2792 42.2496 33.5999 45.8375 34.0091 49.4103L34.0094 49.4105Z" fill="#21418A"/>
<path fill-rule="evenodd" clip-rule="evenodd" d="M37.5057 6.0083C53.0702 6.15487 66.2505 17.5243 68.5529 32.9477C68.9574 35.6544 69.2658 38.3763 69.6122 41.0917C69.6531 41.4239 69.655 41.7674 69.6579 42.1043C69.6684 42.8629 69.4342 43.4501 68.5615 43.5167C67.7173 43.5833 67.3195 43.1179 67.2367 42.328C67.0321 40.3855 66.8256 38.4478 66.6314 36.5054C65.5179 25.3598 60.4234 16.7629 50.2809 11.6199C42.8023 7.82543 35.0257 7.59689 27.151 10.4702C26.8341 10.5863 26.5152 10.6967 26.2059 10.8347C25.4474 11.1745 24.8364 10.9527 24.5242 10.2342C24.2035 9.50041 24.4938 8.85133 25.258 8.60579C27.3946 7.91675 29.5198 7.15442 31.707 6.68236C33.5999 6.27312 35.5699 6.22173 37.5059 6.01045L37.5057 6.0083Z" fill="#21418A"/>
<path fill-rule="evenodd" clip-rule="evenodd" d="M20.4781 37.5598C20.8141 39.9714 21.2947 42.3766 21.4489 44.7976C21.6249 47.5235 21.5307 50.271 21.4936 53.0045C21.4869 53.4518 21.2785 54.0104 20.9635 54.2969C20.6989 54.5339 20.0393 54.6224 19.7386 54.4568C19.3922 54.2607 19.0686 53.7135 19.0543 53.3071C19.0153 52.3011 19.2761 51.279 19.2028 50.2796C18.9525 46.8411 18.7079 43.4016 18.2815 39.9867C17.1595 30.97 22.4178 22.3351 30.9738 19.3037C38.4419 16.6571 46.801 18.8364 52.0079 24.7886C52.2553 25.0713 52.4989 25.3597 52.7102 25.669C53.1328 26.2866 53.0909 26.9033 52.5009 27.3697C51.907 27.8408 51.3207 27.7123 50.7992 27.1736C49.9398 26.2847 49.1498 25.3006 48.1876 24.5384C43.0626 20.4708 37.336 19.4867 31.2659 21.8859C25.2816 24.2528 21.8314 28.8497 20.7294 35.1853C20.5943 35.9581 20.619 36.7575 20.5676 37.5456C20.5391 37.5494 20.5067 37.5541 20.4782 37.5599L20.4781 37.5598Z" fill="#21418A"/>
<path fill-rule="evenodd" clip-rule="evenodd" d="M52.0243 49.6688C51.9748 57.4663 50.6681 65.0543 48.2194 72.4493C47.9462 73.2716 47.5579 73.9873 46.5615 73.7075C45.6745 73.4553 45.5821 72.792 45.801 71.9078C46.886 67.5079 48.0642 63.1216 48.8931 58.6693C49.7268 54.1858 49.7268 49.6097 49.348 45.0683C49.0815 41.898 48.6609 38.726 48.1136 35.5891C47.0087 29.2364 40.6777 25.3628 34.4478 27.115C34.2298 27.1769 34.0128 27.2397 33.7996 27.313C33.0202 27.5776 32.4301 27.3178 32.1712 26.5678C31.8981 25.7817 32.3264 25.2496 33.0525 24.9956C34.9579 24.3341 36.926 24.0115 38.9294 24.3103C45.4412 25.2773 49.7305 29.4677 50.6907 36.0032C51.356 40.5276 51.7757 45.0883 52.3039 49.632C52.2125 49.6453 52.1164 49.6586 52.0241 49.6691L52.0243 49.6688Z" fill="#21418A"/>
<path fill-rule="evenodd" clip-rule="evenodd" d="M63.9772 53.8106C63.7517 55.9148 63.3101 60.1328 62.8428 64.3471C62.7476 65.196 62.4012 65.9165 61.3571 65.8032C60.571 65.7195 60.2217 64.9847 60.3987 63.9645C61.5503 57.3386 61.7921 50.6604 61.2429 43.9744C60.9241 40.0913 60.5672 36.175 59.7554 32.3785C58.401 26.0495 54.7037 21.2385 49.1884 17.8409C48.9343 17.6839 48.5402 17.5935 48.4394 17.3717C48.2138 16.8768 47.9093 16.2306 48.0692 15.8109C48.1919 15.4854 48.9581 15.3198 49.4587 15.2484C49.7318 15.2123 50.064 15.5026 50.3504 15.6786C57.3103 19.9423 61.3628 26.1382 62.6524 34.1803C63.586 39.9733 64.0276 45.8093 63.9772 53.8105L63.9772 53.8106Z" fill="#21418A"/>
<path fill-rule="evenodd" clip-rule="evenodd" d="M74.8664 35.3547V36.4825C74.8683 37.2686 74.442 37.6883 73.6911 37.6864C72.8659 37.6845 72.5633 37.1611 72.4719 36.3712C72.214 34.1384 72.0389 31.8818 71.5716 29.693C68.7336 16.3784 57.2557 5.41725 43.8525 3.11898C43.704 3.09328 43.5527 3.08852 43.4042 3.06092C42.2698 2.84107 41.6797 2.26814 41.891 1.51246C42.1879 0.455101 42.9998 0.434146 43.883 0.623553C59.8529 4.04794 69.9355 13.6498 74.0409 29.461C74.5368 31.373 74.6852 33.3753 74.9964 35.3349C74.9517 35.3416 74.9089 35.3482 74.8651 35.3549L74.8664 35.3547Z" fill="#21418A"/>
<path fill-rule="evenodd" clip-rule="evenodd" d="M5.91773 57.3289C5.97768 57.1366 6.03384 56.9196 6.11569 56.7131C7.5071 53.1728 7.43763 49.5208 6.9294 45.8367C6.45544 42.4218 5.86822 39.0357 6.11281 35.5458C6.6296 28.1471 9.34959 21.7096 14.3652 16.2837C15.8575 14.6686 17.6468 13.323 19.3265 11.8838C20.0051 11.3023 20.7817 11.1433 21.3632 12.0028C21.919 12.8232 21.4231 13.398 20.7541 13.8843C14.5992 18.3508 10.6695 24.281 9.08485 31.736C8.26446 35.6094 8.39198 39.4755 9.04202 43.3659C9.82528 48.056 10.2516 52.77 8.46052 57.3524C8.26446 57.8559 7.70484 58.4355 7.20996 58.5583C6.44193 58.7476 5.99935 58.1471 5.91751 57.3286L5.91773 57.3289Z" fill="#21418A"/>
<path fill-rule="evenodd" clip-rule="evenodd" d="M29.7382 29.5025C29.4537 29.9984 29.2928 30.3791 29.0492 30.6912C26.844 33.4987 26.2644 36.6366 26.8478 40.1333C28.54 50.2654 27.7862 60.11 23.0943 69.4361C22.9239 69.772 22.7374 70.0994 22.569 70.4354C22.2121 71.1416 21.6477 71.4804 20.9091 71.1311C20.1316 70.7647 20.0259 70.1185 20.3724 69.3286C21.3203 67.1624 22.3339 65.0259 23.1333 62.8063C25.2528 56.9314 25.4441 50.8318 24.9445 44.6854C24.7332 42.1063 24.2925 39.5385 24.2297 36.9613C24.1564 33.9633 25.3347 31.311 27.2743 29.0429C27.5864 28.6794 28.2974 28.4852 28.8027 28.5214C29.1244 28.5452 29.408 29.1333 29.7382 29.5017L29.7382 29.5025Z" fill="#21418A"/>
<path fill-rule="evenodd" clip-rule="evenodd" d="M35.9612 0C37.5887 0.0371164 38.2977 0.363563 38.2615 1.25151C38.2035 2.70956 37.0319 2.52683 36.0887 2.56966C26.9436 2.98746 19.1347 6.45843 12.6343 12.8759C9.99618 15.4817 7.86042 18.4748 6.19976 21.7954C5.81622 22.5625 5.36224 23.1888 4.38005 22.79C3.58157 22.4645 3.44164 21.7478 4.00699 20.6819C9.69358 9.92732 18.4676 3.2435 30.3934 0.769079C32.2197 0.388389 34.1004 0.250391 35.9601 9.85184e-05L35.9612 0Z" fill="#21418A"/>
<path fill-rule="evenodd" clip-rule="evenodd" d="M58.0909 49.8636C58.0566 56.5258 57.0573 63.0354 55.4469 69.4634C55.3498 69.8536 55.227 70.3789 54.9434 70.5464C54.5541 70.7729 53.7994 70.9366 53.5653 70.7254C53.2084 70.4027 52.9429 69.6956 53.0267 69.2197C53.533 66.3046 54.2363 63.4208 54.7103 60.503C55.4792 55.7853 55.7334 51.0285 55.4383 46.2499C55.15 41.5637 54.7236 36.9002 53.5415 32.3368C53.3417 31.5678 53.4578 30.8511 54.3362 30.618C55.1994 30.3895 55.7362 30.9082 55.8866 31.6925C56.4395 34.5628 57.0705 37.4246 57.415 40.3208C57.7881 43.4852 57.8776 46.683 58.0908 49.8637L58.0909 49.8636Z" fill="#21418A"/>
<path fill-rule="evenodd" clip-rule="evenodd" d="M39.9791 49.5542C40.0153 53.755 39.4747 57.8723 38.5277 61.9494C38.4592 62.2425 38.3688 62.529 38.3079 62.8231C38.1356 63.6225 37.6398 63.9966 36.8432 63.8529C35.98 63.693 35.8267 63.0306 35.9476 62.3044C36.0875 61.4555 36.3121 60.6198 36.4834 59.7737C37.9072 52.8014 37.7816 45.8262 36.4787 38.851C36.4225 38.5579 36.373 38.2609 36.3045 37.9697C36.1256 37.1864 36.3673 36.602 37.1658 36.4108C38.0271 36.2023 38.5611 36.663 38.7038 37.4853C39.0417 39.404 39.4081 41.3265 39.6079 43.2623C39.824 45.3484 39.864 47.4566 39.9791 49.5541V49.5542Z" fill="#21418A"/>
<path fill-rule="evenodd" clip-rule="evenodd" d="M3.87386 27.1442C3.48364 29.1705 3.10962 30.8892 2.8298 32.6271C2.00561 37.7587 2.49859 42.8002 3.97757 47.7614C4.42582 49.2604 4.29355 49.8866 3.43698 50.1626C2.60994 50.4291 2.05697 49.9323 1.6306 48.5C-0.464157 41.4924 -0.53552 34.4621 1.38696 27.4031C1.58301 26.6817 1.92087 26.0678 2.70701 26.1287C3.09627 26.1591 3.46554 26.615 3.80529 26.9234C3.9195 27.0281 3.90618 27.2698 3.87382 27.1442L3.87386 27.1442Z" fill="#21418A"/>
<path fill-rule="evenodd" clip-rule="evenodd" d="M45.556 56.4153C44.8603 61.7106 43.5688 66.8614 41.7966 71.8979C41.611 72.43 41.415 72.9572 41.217 73.4845C40.7278 74.7845 40.1425 75.2433 39.3431 74.8797C38.2229 74.3667 38.6217 73.5035 38.8863 72.6641C39.8123 69.7355 40.8268 66.8281 41.6016 63.8606C42.2631 61.3299 42.6742 58.7271 43.1301 56.1469C43.2814 55.2903 43.5841 54.6441 44.5149 54.7345C45.4818 54.8287 45.6674 55.5625 45.556 56.4153H45.556Z" fill="#21418A"/>
<path fill-rule="evenodd" clip-rule="evenodd" d="M20.3682 59.1391C20.2245 59.6949 20.1788 59.9919 20.0713 60.2679C19.1966 62.5006 18.3296 64.7314 17.4187 66.9461C17.098 67.7256 16.5726 68.3889 15.6076 67.9254C14.6663 67.4714 14.8605 66.7091 15.1917 65.903C16.1139 63.6484 16.9962 61.3805 17.8766 59.1115C18.1393 58.4329 18.598 57.9551 19.3109 58.1921C19.7496 58.3406 20.0627 58.8526 20.3682 59.1391L20.3682 59.1391Z" fill="#21418A"/>
<path fill-rule="evenodd" clip-rule="evenodd" d="M67.5202 52.222C67.5202 51.02 67.5221 49.817 67.5183 48.6149C67.5164 47.7755 67.8409 47.2197 68.7632 47.2349C69.6292 47.2521 69.9129 47.7907 69.9062 48.5835C69.8843 50.9495 69.8843 53.3126 69.8567 55.6786C69.8481 56.5418 69.6197 57.2785 68.549 57.2747C67.6791 57.2709 67.2908 56.6694 67.3603 55.4854C67.425 54.3957 67.4983 53.3107 67.5687 52.2248C67.5507 52.2257 67.5335 52.2219 67.5202 52.2219L67.5202 52.222Z" fill="#21418A"/>
<path fill-rule="evenodd" clip-rule="evenodd" d="M33.4691 74.7127C32.3822 74.7194 31.8093 73.9637 32.1453 73.07C32.7886 71.3512 33.4615 69.6352 34.2724 67.9926C34.4532 67.6261 35.3041 67.3359 35.7476 67.4368C36.0769 67.5138 36.5575 68.3866 36.4404 68.7225C35.7923 70.5917 35.0081 72.42 34.2048 74.231C34.0849 74.5032 33.6233 74.6212 33.4691 74.7126L33.4691 74.7127Z" fill="#21418A"/>
</svg>
