<svg width="30" height="25" viewBox="0 0 30 25" fill="none" xmlns="http://www.w3.org/2000/svg">
<path d="M22.6218 21.707L22.8928 21.2598L23.3831 21.0779C24.1168 20.8057 24.6964 20.2321 24.9691 19.4829L28.1959 10.6172C28.7017 9.22803 27.9853 7.69215 26.5961 7.18638L11.417 1.66157C10.0278 1.15608 8.49158 1.87219 7.98612 3.26139L6.18378 8.2129H4.17586C2.69764 8.2129 1.49904 9.41151 1.49904 10.8897V20.3244C1.49904 21.8026 2.69764 23.0012 4.17586 23.0012H20.3293C21.2781 23.0012 22.1392 22.505 22.622 21.707L22.6218 21.707ZM20.3292 24.5001H4.17569C1.86965 24.5001 0 22.6305 0 20.3244V10.8898C0 8.58373 1.86957 6.71408 4.17569 6.71408H5.13407L6.57733 2.74871C7.366 0.581559 9.76237 -0.535747 11.9294 0.252921L27.1086 5.77773C29.2757 6.5664 30.3933 8.96277 29.6044 11.1298L26.3776 19.9955C25.9414 21.1944 25.0131 22.0718 23.9042 22.4832C23.1725 23.6922 21.8452 24.5 20.329 24.5L20.3292 24.5001Z" fill="#7A7A7A"/>
<path d="M0.612793 14.5652V11.5673H23.908V14.5652H0.612793Z" fill="#7A7A7A"/>
<path d="M4.64752 20.5912C4.23374 20.5912 3.89795 20.2557 3.89795 19.8419C3.89795 19.4279 4.23374 19.0924 4.64752 19.0924H7.60518C8.01895 19.0924 8.35445 19.4279 8.35445 19.8419C8.35445 20.2557 8.01895 20.5912 7.60518 20.5912H4.64752Z" fill="#7A7A7A"/>
<path d="M11.4078 20.5912C10.9937 20.5912 10.6582 20.2557 10.6582 19.8419C10.6582 19.4279 10.9937 19.0924 11.4078 19.0924H15.2103C15.6241 19.0924 15.9599 19.4279 15.9599 19.8419C15.9599 20.2557 15.6241 20.5912 15.2103 20.5912H11.4078Z" fill="#7A7A7A"/>
<path d="M4.17569 8.21278C2.69747 8.21278 1.49887 9.41139 1.49887 10.8896V20.3243C1.49887 21.8025 2.69747 23.0011 4.17569 23.0011H20.3292C21.8077 23.0011 23.006 21.8025 23.006 20.3243V10.8896C23.006 9.41139 21.8077 8.21278 20.3292 8.21278H4.17569ZM4.17569 6.71391H20.3292C22.6355 6.71391 24.5052 8.58348 24.5052 10.8896V20.3243C24.5052 22.6303 22.6356 24.4999 20.3292 24.4999H4.17569C1.86964 24.4999 0 22.6304 0 20.3243V10.8896C0 8.58356 1.86957 6.71391 4.17569 6.71391Z" fill="#7A7A7A"/>
</svg>
