<svg width="24" height="24" viewBox="0 0 24 24" fill="none" xmlns="http://www.w3.org/2000/svg">
<path d="M4.22439 23.9999H8.44887C8.95203 23.9999 9.41687 23.714 9.66833 23.25C9.92003 22.7859 9.92003 22.2141 9.66833 21.7501C9.41687 21.2858 8.95198 20.9999 8.44887 20.9999H4.22439C3.85088 20.9999 3.49282 20.8419 3.2286 20.5607C2.96462 20.2793 2.81629 19.8979 2.81629 19.5V7.49996C2.81629 7.1021 2.96462 6.72043 3.2286 6.43924C3.49283 6.15805 3.85087 5.99979 4.22439 5.99979H15.4898C15.8633 5.99979 16.2217 6.15805 16.4856 6.43924C16.7496 6.72044 16.8982 7.10209 16.8982 7.49996V9.7501V9.74984C16.8982 10.2858 17.1666 10.781 17.6022 11.0491C18.0378 11.3169 18.5747 11.3169 19.0103 11.0491C19.4459 10.781 19.7143 10.2858 19.7143 9.74984V7.49997C19.7133 6.5703 19.4422 5.66367 18.9378 4.90483C18.4334 4.14598 17.721 3.57237 16.8981 3.26239V1.49988C16.8981 0.963906 16.6297 0.468764 16.1938 0.200906C15.7582 -0.0669522 15.2214 -0.0669522 14.7858 0.200906C14.3502 0.468764 14.0817 0.963966 14.0817 1.49988V2.99975L11.2653 3.00002V1.49988C11.2653 0.9639 10.9969 0.468757 10.5613 0.2009C10.1257 -0.0669583 9.58883 -0.0669583 9.15299 0.2009C8.71735 0.468757 8.44896 0.96396 8.44896 1.49988V2.99975L5.63254 3.00001V1.49987C5.63254 0.963894 5.36413 0.468751 4.92851 0.200893C4.49287 -0.0669645 3.95605 -0.0669645 3.52045 0.200893C3.08482 0.468751 2.81643 0.963954 2.81643 1.49987V3.26238C1.99352 3.57235 1.28088 4.14597 0.776511 4.90481C0.272363 5.66365 0.00100584 6.57029 0 7.49995V19.5C0 20.6936 0.444966 21.838 1.23744 22.6819C2.02967 23.526 3.10397 24 4.22454 24L4.22439 23.9999Z" fill="#7A7A7A"/>
<path d="M23.1096 16.165C23.2316 15.4937 23.0164 14.8057 22.5341 14.3235C22.0519 13.841 21.3637 13.626 20.6926 13.7477C20.2604 13.831 19.864 14.0452 19.5575 14.3614L13.717 20.2019C13.1669 20.7525 12.8579 21.4989 12.8574 22.2774V23.2654C12.8574 23.4601 12.9348 23.6472 13.0727 23.7848C13.2105 23.9226 13.3973 24 13.5923 24H14.5803C15.36 24.0008 16.1076 23.6915 16.6593 23.1406L22.4962 17.2998C22.8123 16.9933 23.0266 16.5972 23.1096 16.1649L23.1096 16.165Z" fill="#7A7A7A"/>
<path d="M10.2855 18C10.705 18 11.1076 17.8611 11.4043 17.6139C11.7012 17.3664 11.8679 17.0311 11.8679 16.6814V15.033H13.846C14.4114 15.033 14.9338 14.7816 15.2164 14.3737C15.4989 13.9655 15.4989 13.4628 15.2164 13.0548C14.9338 12.6469 14.4113 12.3955 13.846 12.3955H11.8679V10.7472C11.8679 10.276 11.5663 9.84066 11.0767 9.60517C10.5872 9.36969 9.98392 9.36969 9.49413 9.60517C9.00458 9.84066 8.70297 10.276 8.70297 10.7472V12.3955H6.7249C6.15946 12.3955 5.6371 12.6469 5.35451 13.0548C5.07193 13.4628 5.07193 13.9655 5.35451 14.3737C5.6371 14.7816 6.15952 15.033 6.7249 15.033H8.70297V16.6814C8.70297 17.0311 8.86965 17.3664 9.16658 17.6139C9.46324 17.8611 9.86586 18 10.2856 18H10.2855Z" fill="#7A7A7A"/>
</svg>
