<svg width="27" height="25" viewBox="0 0 27 25" fill="none" xmlns="http://www.w3.org/2000/svg">
<path d="M2.073 24.9993C1.62174 24.9993 1.20079 24.8476 0.856146 24.5604C0.201093 24.0149 -0.0936471 23.3033 0.0261196 22.5567C0.11784 21.9823 0.393949 20.2543 6.38282 17.7932C8.44817 14.3756 10.4026 10.1535 11.4715 6.80784C9.83383 4.26823 9.32815 2.44436 9.92539 1.24071C10.1808 0.726322 10.7492 0.09451 12.0041 0.00633676C12.0663 0.00205005 12.1267 0 12.1858 0C12.8607 0 13.4449 0.282364 13.8306 0.795086C14.3107 1.43305 14.8096 2.71385 13.7417 6.47291C15.5475 9.05612 18.2826 12.01 20.757 14.0487C21.5334 13.9699 22.2423 13.93 22.8704 13.93C24.8132 13.93 26.0008 14.2972 26.6084 15.085C26.9862 15.5755 27.0953 16.2034 26.9154 16.8524C26.6359 17.8587 25.8501 18.4594 24.8124 18.4594H24.8122C23.6571 18.4594 22.0841 17.6969 20.133 16.1919C16.4579 16.6724 11.61 17.9499 7.80103 19.4438C4.32991 24.9995 2.63572 25 2.07257 25L2.073 24.9993ZM2.07978 22.8673C2.08732 22.8791 2.10295 22.9011 2.13327 22.9315C2.39808 22.8586 3.03562 22.4307 4.03758 21.2043C2.57097 22.0607 2.11331 22.6554 2.0798 22.8673L2.07978 22.8673ZM12.9518 8.88941C12.0516 11.3598 10.7929 14.1254 9.41367 16.668C12.2322 15.7192 15.3306 14.9172 18.0563 14.433C16.2521 12.78 14.4213 10.7921 12.9517 8.88922L12.9518 8.88941ZM23.619 16.0115C24.1663 16.2862 24.5665 16.4021 24.8129 16.4021C24.8423 16.402 24.8641 16.4003 24.8788 16.398C24.8871 16.3807 24.8994 16.3518 24.9118 16.3075C24.9123 16.3056 24.9125 16.3037 24.9131 16.3019C24.801 16.2327 24.4584 16.0736 23.619 16.0115L23.619 16.0115ZM12.1814 2.05647C12.1716 2.05647 12.162 2.05703 12.1514 2.05777C11.8731 2.07734 11.7934 2.14351 11.7923 2.14407C11.7243 2.24192 11.6919 2.75913 12.2027 3.87814C12.3904 2.64338 12.2373 2.17689 12.1814 2.05647V2.05647Z" fill="white"/>
</svg>
