<svg width="33" height="29" viewBox="0 0 33 29" fill="none" xmlns="http://www.w3.org/2000/svg">
<path d="M16.3377 0C15.2618 0 14.2888 0.527954 13.7286 1.46039L0.41387 23.6527C-0.146375 24.5883 -0.134026 25.7385 0.427796 26.6729C0.931377 27.5104 1.87401 28.1362 2.9517 28.1333H29.7238C30.8015 28.1377 31.7445 27.5104 32.2477 26.6729C32.8095 25.7382 32.8221 24.588 32.2616 23.6527L18.9469 1.46039C18.3866 0.527581 17.4136 0 16.3378 0H16.3377ZM16.3377 2.72274C16.4241 2.72274 16.5852 2.82815 16.607 2.86455L29.9217 25.0568C29.9436 25.0932 29.9436 25.2331 29.9217 25.2695C29.8417 25.4028 29.8103 25.4117 29.7233 25.4113H2.95122C2.86449 25.4117 2.83284 25.4028 2.75276 25.2695C2.73092 25.2331 2.73092 25.0932 2.75276 25.0568L16.0675 2.86455C16.0893 2.82815 16.2504 2.72274 16.3368 2.72274H16.3377ZM16.3377 8.16783C15.0845 8.16783 14.0688 9.18353 14.0688 10.4366L14.5227 17.2431C14.5227 18.2455 15.3352 19.058 16.3376 19.058C17.34 19.058 18.1525 18.2455 18.1525 17.2431L18.6064 10.4366C18.6064 9.18353 17.5907 8.16783 16.3376 8.16783H16.3377ZM16.3377 19.9657C15.0845 19.9657 14.0688 20.9814 14.0688 22.2345C14.0688 23.4876 15.0845 24.5033 16.3377 24.5033C17.5908 24.5033 18.6065 23.4876 18.6065 22.2345C18.6065 20.9814 17.5908 19.9657 16.3377 19.9657Z" fill="#D10000"/>
</svg>
