<svg width="25" height="26" viewBox="0 0 25 26" fill="none" xmlns="http://www.w3.org/2000/svg">
<path d="M13.7673 16.7339V14.0741C13.7673 13.96 13.722 13.8504 13.6412 13.77C13.5608 13.6892 13.4512 13.6439 13.3371 13.6439H10.2167V10.5235C10.2167 10.4094 10.1714 10.2998 10.0906 10.219C10.0098 10.1383 9.90057 10.093 9.78619 10.093H7.12665C6.88888 10.093 6.69614 10.2857 6.69614 10.5235V13.6439H3.57601C3.33824 13.6439 3.14551 13.8363 3.14551 14.0741V16.734C3.14551 16.848 3.19084 16.9576 3.27159 17.0384C3.35235 17.1188 3.46163 17.1642 3.57601 17.1642H6.69644V20.2846H6.69614C6.69614 20.3987 6.74147 20.5083 6.82223 20.589C6.90299 20.6698 7.01257 20.7151 7.12664 20.7151H9.78649H9.78619C9.90057 20.7151 10.0099 20.6698 10.0906 20.589C10.1714 20.5082 10.2167 20.3987 10.2167 20.2846V17.1642H13.3371C13.4512 17.1642 13.5608 17.1188 13.6412 17.0384C13.722 16.9576 13.7673 16.848 13.7673 16.734V16.7339ZM12.9066 16.3034H9.7862C9.54873 16.3034 9.35599 16.4962 9.35599 16.7339V19.8544L7.55683 19.8541V16.7339C7.55683 16.6199 7.5115 16.5103 7.43105 16.4295C7.35029 16.3488 7.24071 16.3034 7.12664 16.3034H4.0062V14.5046H7.12664C7.24072 14.5046 7.3503 14.4593 7.43105 14.3785C7.5115 14.2978 7.55683 14.1882 7.55683 14.0741V10.954H9.35569V14.0744L9.35599 14.0741C9.35599 14.1882 9.40132 14.2978 9.48207 14.3785C9.56283 14.4593 9.67211 14.5046 9.78618 14.5046H12.9066L12.9066 16.3034Z" fill="white"/>
<path d="M1.8252 1.28705H2.68589V3.06008H1.8252V1.28705Z" fill="white"/>
<path d="M3.60156 1.28705H4.46225V3.06008H3.60156V1.28705Z" fill="white"/>
<path d="M5.375 1.28705H6.23569V3.06008H5.375V1.28705Z" fill="white"/>
<path d="M7.14844 1.28705H8.00913V3.06008H7.14844V1.28705Z" fill="white"/>
<path d="M8.92188 1.28705H9.78257V3.06008H8.92188V1.28705Z" fill="white"/>
<path d="M10.6992 1.28705H11.5599V3.06008H10.6992V1.28705Z" fill="white"/>
<path d="M12.4727 1.28705H13.3333V3.06008H12.4727V1.28705Z" fill="white"/>
<path d="M14.2461 1.28705H15.1068V3.06008H14.2461V1.28705Z" fill="white"/>
<path d="M22.2251 14.0048C21.5301 13.8995 20.8219 14.076 20.2581 14.4954C19.9242 14.7425 19.6543 15.0655 19.4703 15.4381C19.5847 15.4453 19.6985 15.4612 19.8105 15.4852C20.4031 15.6134 20.9447 15.9127 21.3685 16.3462C21.9488 16.922 22.2746 17.7061 22.2722 18.524C22.2689 18.9704 22.1689 19.4108 21.9795 19.8149C21.9542 19.8725 21.9254 19.9287 21.8936 19.983L23.1116 20.1637L22.7543 22.5867C22.6862 23.0556 22.434 23.4784 22.0536 23.7611C21.6733 24.0436 21.196 24.1631 20.7273 24.0929C20.3848 24.0418 20.0644 23.8929 19.8047 23.6635C19.5451 23.4345 19.3571 23.1352 19.2638 22.8019L18.5967 23.469C18.9728 24.2694 19.7237 24.8296 20.5982 24.9623C20.7291 24.983 20.8615 24.9929 20.9939 24.9926C21.6279 24.9911 22.2401 24.7623 22.7195 24.3475C23.1989 23.9329 23.5135 23.36 23.6063 22.7329L24.0368 19.9052V19.9055C24.038 19.8983 24.038 19.8911 24.0368 19.8839L24.4673 17.0304C24.4877 16.8995 24.4979 16.7671 24.4973 16.6344C24.497 15.9964 24.2671 15.3798 23.8501 14.8971C23.4328 14.4144 22.856 14.0977 22.225 14.0049L22.2251 14.0048Z" fill="white"/>
<path d="M19.2083 22.2383L21.0675 20.3791V20.3788C21.2076 20.2392 21.3304 20.0831 21.4334 19.9141C21.4931 19.8243 21.5451 19.7291 21.5883 19.6301C21.757 19.2782 21.8438 18.8927 21.8423 18.5025C21.8429 17.8003 21.5643 17.1266 21.0675 16.6304C20.6991 16.2647 20.2329 16.0134 19.7246 15.9071C19.5826 15.8801 19.4388 15.8645 19.2944 15.86C18.554 15.8267 17.8341 16.1062 17.3103 16.6303L16.8585 17.0821V7.94033C16.8492 7.88359 16.8363 7.82775 16.8195 7.77251L15.141 4.40683H15.3304V4.40713C15.7438 4.40713 16.14 4.24292 16.4322 3.95081C16.7243 3.6584 16.8885 3.26212 16.8885 2.84903V1.5578C16.8885 1.14471 16.7243 0.748445 16.4322 0.456322C16.1401 0.163915 15.7438 0 15.3304 0H1.5581C1.14501 0 0.748753 0.163915 0.456322 0.456322C0.164214 0.74843 0 1.14471 0 1.5578V2.84903C0 3.26212 0.164214 3.65838 0.456322 3.95081C0.748729 4.24292 1.14501 4.40713 1.5581 4.40713H1.76465L0.0732423 7.77281V7.77251C0.0564305 7.82775 0.0435204 7.88359 0.0345138 7.94033V21.7726C0.0345138 22.5717 0.351838 23.3378 0.916801 23.9029C1.4818 24.4679 2.24822 24.7855 3.04712 24.7855H13.6515C14.1615 25.1196 14.7709 25.2691 15.3777 25.2088C15.9847 25.1484 16.5527 24.8821 16.9871 24.454L19.0274 22.4138L19.2083 22.2383ZM1.56253 3.52118V3.52088C1.17766 3.52088 0.865441 3.20896 0.865441 2.82379V1.53256C0.865441 1.14769 1.17766 0.835473 1.56253 0.835473H15.3348C15.7197 0.835473 16.0319 1.14769 16.0319 1.53256V2.82379C16.0319 3.20896 15.7197 3.52088 15.3348 3.52088H1.56253V3.52118ZM2.62558 4.58846C2.6556 4.52391 2.66881 4.45276 2.66431 4.38191H14.2501C14.2456 4.45276 14.2591 4.52392 14.2888 4.58846L15.7437 7.51069H1.17056L2.62558 4.58846ZM12.8472 23.9258H3.05596C2.48526 23.9258 1.93797 23.6991 1.53417 23.2956C1.13069 22.8921 0.90403 22.3445 0.90403 21.7738V8.37198H16.0105V17.9434L15.296 18.6579L13.2431 20.7065C12.8301 21.1235 12.5671 21.666 12.4956 22.2484C12.4239 22.8311 12.5475 23.421 12.8472 23.9257L12.8472 23.9258ZM16.3849 23.8441H16.3852C15.9337 24.2953 15.2759 24.4715 14.6596 24.3064C14.0429 24.1413 13.5614 23.6598 13.3962 23.0431C13.2311 22.4268 13.4073 21.769 13.8586 21.3178L15.5799 19.5964L17.9039 21.9162L18.1104 22.1227L16.3849 23.8441Z" fill="white"/>
</svg>
