<svg width="36" height="25" viewBox="0 0 36 25" fill="none" xmlns="http://www.w3.org/2000/svg">
<path d="M34.6705 0H0.62357C0.249428 0 0 0.249428 0 0.62357V23.8831C0 24.2572 0.249428 24.5067 0.62357 24.5067H34.6705C35.0446 24.5067 35.2941 24.2572 35.2941 23.8831V0.62357C35.2941 0.311785 35.0446 0 34.6705 0ZM34.0469 23.3215H1.24714V1.24714H34.0469V23.3215Z" fill="white"/>
<path d="M6.11075 17.4599C6.23547 17.5223 6.29782 17.5223 6.42254 17.5223C6.60961 17.5223 6.85904 17.3976 6.98375 17.2105C7.17082 16.8987 7.04611 16.5246 6.73432 16.3375C5.42483 15.5892 4.55183 14.155 4.55183 12.5961C4.55183 11.3489 5.11304 10.1642 5.98604 9.35353C6.92139 8.54288 8.10618 8.10639 9.41567 8.29346C11.4111 8.54288 12.97 10.1018 13.2194 12.0972V14.4044C13.2194 14.7162 12.97 15.028 12.5959 15.028C12.2217 15.028 11.9723 14.7786 11.9723 14.4044V12.2843C11.9723 10.5383 10.6005 9.16645 8.85446 9.16645C7.10846 9.16645 5.73661 10.5383 5.73661 12.2843C5.73661 14.0303 7.10846 15.4022 8.85446 15.4022C9.60274 15.4022 10.2263 15.1527 10.7875 14.7162C10.9746 15.5892 11.7229 16.2128 12.5959 16.2128C13.5936 16.2128 14.4666 15.4022 14.4666 14.3421V11.9725V11.9102C14.1548 9.35353 12.097 7.29575 9.54039 6.98396C7.9191 6.79689 6.36018 7.29575 5.1754 8.35581C3.99061 9.41588 3.30469 10.9748 3.30469 12.5337C3.30469 14.5915 4.42711 16.4622 6.11075 17.4599ZM8.91682 14.155C7.85675 14.155 7.04611 13.3444 7.04611 12.2843C7.04611 11.2242 7.85675 10.4136 8.91682 10.4136C9.97689 10.4136 10.7875 11.2242 10.7875 12.2843C10.7875 13.3444 9.97689 14.155 8.91682 14.155Z" fill="white"/>
<path d="M17.273 6.23573H30.5554C30.9295 6.23573 31.1789 5.9863 31.1789 5.61216C31.1789 5.23801 30.9295 4.98859 30.5554 4.98859H17.273C16.8988 4.98859 16.6494 5.23801 16.6494 5.61216C16.6494 5.9863 16.8988 6.23573 17.273 6.23573Z" fill="white"/>
<path d="M30.5538 8.35657H20.5767C20.2026 8.35657 19.9531 8.606 19.9531 8.98014C19.9531 9.35428 20.2026 9.60371 20.5767 9.60371H30.5538C30.928 9.60371 31.1774 9.35428 31.1774 8.98014C31.1774 8.606 30.928 8.35657 30.5538 8.35657Z" fill="white"/>
<path d="M30.5538 14.9657H20.5767C20.2026 14.9657 19.9531 15.2151 19.9531 15.5893C19.9531 15.9634 20.2026 16.2128 20.5767 16.2128H30.5538C30.928 16.2128 31.1774 15.9634 31.1774 15.5893C31.1774 15.2151 30.928 14.9657 30.5538 14.9657Z" fill="white"/>
<path d="M17.273 19.5808H30.5554C30.9295 19.5808 31.1789 19.3314 31.1789 18.9572C31.1789 18.5831 30.9295 18.3337 30.5554 18.3337H17.273C16.8988 18.3337 16.6494 18.5831 16.6494 18.9572C16.6494 19.3314 16.8988 19.5808 17.273 19.5808Z" fill="white"/>
</svg>
