<svg width="24" height="26" viewBox="0 0 24 26" fill="none" xmlns="http://www.w3.org/2000/svg">
<path fill-rule="evenodd" clip-rule="evenodd" d="M16.0953 0C16.4817 0 16.7966 0.314158 16.7966 0.701409V24.3092C16.7966 24.6963 16.4817 25.0104 16.0953 25.0104H0.701228C0.314171 25.0104 0 24.6963 0 24.3092V0.701409C0 0.314176 0.314158 0 0.701228 0H16.0953ZM1.40268 23.6078H15.3939V1.40246H1.40268V23.6078ZM22.7506 1.41463C23.2533 1.41463 23.6608 1.82212 23.6608 2.32485V22.6859C23.6608 23.1887 23.2533 23.5962 22.7506 23.5962H18.1988V22.1936H22.2585V2.81749H18.1988V1.4149L22.7506 1.41463ZM13.9193 19.3901C13.9579 19.3901 13.9894 19.4209 13.9894 19.4601V20.7224C13.9894 20.761 13.9579 20.7925 13.9193 20.7925H2.87727C2.838 20.7925 2.80648 20.761 2.80648 20.7224V19.4601C2.80648 19.4209 2.838 19.3901 2.87727 19.3901H13.9193ZM13.9193 16.585C13.9579 16.585 13.9894 16.6158 13.9894 16.6551V17.9174C13.9894 17.9559 13.9579 17.9874 13.9193 17.9874H2.87727C2.838 17.9874 2.80648 17.9559 2.80648 17.9174V16.6551C2.80648 16.6158 2.838 16.585 2.87727 16.585H13.9193Z" fill="white"/>
<path fill-rule="evenodd" clip-rule="evenodd" d="M3.47271 12.0071C3.08495 12.0071 2.77148 11.693 2.77148 11.3057C2.77148 10.9186 3.08493 10.6045 3.47271 10.6045H4.54847L6.32406 3.28068C6.4026 2.95878 6.70337 2.72809 7.02596 2.74481C7.35773 2.75467 7.63595 2.99522 7.69564 3.32135L9 10.5239L9.40819 8.09552C9.46208 7.77572 9.72851 7.53449 10.0525 7.5128C10.3723 7.48886 10.6731 7.69365 10.7692 8.0036L11.6009 10.6718H13.3238C13.7116 10.6718 14.0251 10.9855 14.0251 11.3732C14.0251 11.7603 13.7116 12.0745 13.3238 12.0745H11.0848C10.7784 12.0745 10.507 11.8746 10.4151 11.5821L10.3043 11.2244L9.71672 14.7175C9.65984 15.0533 9.37016 15.3002 9.02942 15.3023H9.0252C8.68656 15.3023 8.39619 15.0603 8.33524 14.7259L6.90605 6.83278L5.78115 11.4716C5.70543 11.7857 5.42368 12.0074 5.09967 12.0074L3.47271 12.0071ZM20.8513 16.5148C20.8513 16.5534 20.8205 16.5849 20.7812 16.5849H18.1991V15.1825H20.7812C20.8205 15.1825 20.8513 15.214 20.8513 15.2526V16.5148ZM20.8513 19.3199C20.8513 19.3584 20.8205 19.3899 20.7812 19.3899H18.1991V17.9875H20.7812C20.8205 17.9875 20.8513 18.0191 20.8513 18.0576V19.3199ZM20.8513 10.9047C20.8513 10.9432 20.8205 10.9749 20.7812 10.9749H18.1991V9.57234H20.7812C20.8205 9.57234 20.8513 9.60386 20.8513 9.64242V10.9047ZM20.8513 13.7097C20.8513 13.7483 20.8205 13.7798 20.7812 13.7798H18.1991V12.3774H20.7812C20.8205 12.3774 20.8513 12.4089 20.8513 12.4475V13.7097Z" fill="white"/>
</svg>
