<svg width="27" height="26" viewBox="0 0 27 26" fill="none" xmlns="http://www.w3.org/2000/svg">
<path d="M16.2125 9.71704C16.7094 9.71704 17.1125 10.1202 17.1125 10.6171V14.8084C17.1125 15.3052 16.7094 15.7084 16.2125 15.7084C15.7157 15.7084 15.3125 15.3052 15.3125 14.8084V10.6171C15.3125 10.1198 15.7153 9.71704 16.2125 9.71704Z" fill="#484848"/>
<path d="M0.0683079 13.0563C0.0562534 13.0276 0.0494194 12.9975 0.040781 12.9671C0.0331478 12.9406 0.0227013 12.9153 0.017477 12.8884C0.00582504 12.8307 0 12.7723 0 12.7138V12.712C0 12.6531 0.00622749 12.5937 0.0180798 12.5356C0.0235043 12.5095 0.0329456 12.4852 0.0405807 12.4601C0.0496216 12.4289 0.0568542 12.398 0.0693092 12.3678C0.0819645 12.3377 0.099041 12.3102 0.114309 12.2819C0.126966 12.259 0.13681 12.235 0.151676 12.2125C0.185026 12.1631 0.222393 12.1167 0.264582 12.0749L3.03839 9.30112C3.38976 8.94975 3.9595 8.94975 4.31107 9.30112C4.66244 9.65249 4.66244 10.2222 4.31107 10.5738L3.07213 11.8125H6.49843V5.65537C6.49843 4.08759 7.77373 2.81229 9.3411 2.81229H12.0403C12.2653 2.04686 12.7162 1.36099 13.3606 0.849729C14.3048 0.100964 15.5189 -0.170019 16.6903 0.105027L23.5839 1.71925C25.5951 2.19036 27 3.96205 27 6.02767V19.3973C27 21.463 25.5951 23.2344 23.5839 23.7058L16.6913 25.32C16.3916 25.3901 16.0892 25.4248 15.7891 25.4248C14.916 25.4248 14.0642 25.1319 13.3613 24.5743C12.7174 24.063 12.2664 23.3773 12.0414 22.6123H9.34213C7.7747 22.6123 6.49946 21.337 6.49946 19.7692L6.49966 13.6126H3.07336L4.31127 14.8505C4.66264 15.2019 4.66264 15.7716 4.31127 16.1232C4.13528 16.2992 3.90546 16.3869 3.67504 16.3869C3.4446 16.3869 3.21458 16.2992 3.0388 16.1232L0.26499 13.3494C0.222599 13.3076 0.185432 13.2612 0.152084 13.2111C0.137621 13.19 0.128178 13.1669 0.116125 13.1444C0.0986462 13.1157 0.0809669 13.0874 0.068512 13.0563L0.0683079 13.0563ZM13.6761 21.5031C13.6761 22.1538 13.969 22.76 14.4793 23.1646C14.9895 23.5696 15.6467 23.7166 16.2801 23.5678L23.1733 21.9535C24.3666 21.6741 25.1999 20.623 25.1999 19.3975V6.02787C25.1999 4.80241 24.3666 3.75129 23.1735 3.47187L16.2798 1.85765C16.1179 1.81947 15.954 1.80099 15.792 1.80099C15.3203 1.80099 14.8597 1.9593 14.4798 2.26044C13.9691 2.66545 13.676 3.27114 13.676 3.92224L13.6761 21.5031ZM8.2986 19.7698C8.2986 20.345 8.76669 20.8128 9.34124 20.8128H11.8757V4.61249H9.34124C8.76666 4.61249 8.2986 5.08058 8.2986 5.65553V11.8127H10.0874C10.5842 11.8127 10.9874 12.2159 10.9874 12.7127C10.9874 13.2095 10.5842 13.6127 10.0874 13.6127H8.2986V19.7698Z" fill="#484848"/>
</svg>
