<svg width="26" height="22" viewBox="0 0 26 22" fill="none" xmlns="http://www.w3.org/2000/svg">
<path d="M23.2102 2.28408H19.5672V0.530857C19.5672 0.237661 19.3299 0 19.0363 0C18.7431 0 18.5055 0.237661 18.5055 0.530857V2.28408H6.96734V0.530857C6.96734 0.237661 6.72968 0 6.43648 0C6.14329 0 5.90563 0.237661 5.90563 0.530857V2.28408H2.26261C1.01507 2.28408 0 3.29953 0 4.54707V19.4988C0 20.7467 1.01545 21.7621 2.26299 21.7621H23.2107C24.4586 21.7621 25.4737 20.7467 25.4737 19.4988V4.54707C25.4737 3.29953 24.4586 2.28408 23.2107 2.28408H23.2102ZM2.26246 3.3454H23.2102C23.8728 3.3454 24.4119 3.8844 24.4119 4.54707V5.43405H1.06079V4.54707C1.06079 3.88443 1.59979 3.3454 2.26246 3.3454ZM23.2102 20.7014H2.26246C1.59981 20.7014 1.06079 20.1624 1.06079 19.4993V6.49609H24.4119V19.4993C24.4119 20.1624 23.8729 20.7014 23.2102 20.7014Z" fill="#707070"/>
<path d="M8.24817 8.58435H6.35801C6.06481 8.58435 5.82715 8.82201 5.82715 9.11521C5.82715 9.40841 6.06481 9.64607 6.35801 9.64607H8.24817C8.54137 9.64607 8.77903 9.40841 8.77903 9.11521C8.77866 8.82201 8.541 8.58435 8.24817 8.58435Z" fill="#707070"/>
<path d="M13.6023 8.58435H11.7125C11.4193 8.58435 11.1816 8.82201 11.1816 9.11521C11.1816 9.40841 11.4193 9.64607 11.7125 9.64607H13.6023C13.8955 9.64607 14.1331 9.40841 14.1331 9.11521C14.1331 8.82201 13.8959 8.58435 13.6023 8.58435Z" fill="#707070"/>
<path d="M18.9581 8.58435H17.068C16.7748 8.58435 16.5371 8.82201 16.5371 9.11521C16.5371 9.40841 16.7744 9.64607 17.068 9.64607H18.9581C19.2513 9.64607 19.489 9.40841 19.489 9.11521C19.4886 8.82201 19.2513 8.58435 18.9581 8.58435Z" fill="#707070"/>
<path d="M8.24817 12.2803H6.35801C6.06481 12.2803 5.82715 12.5176 5.82715 12.8111C5.82715 13.1043 6.06481 13.342 6.35801 13.342H8.24817C8.54137 13.342 8.77903 13.1047 8.77903 12.8111C8.77866 12.5176 8.541 12.2803 8.24817 12.2803Z" fill="#707070"/>
<path d="M13.6023 12.2803H11.7125C11.4193 12.2803 11.1816 12.5176 11.1816 12.8111C11.1816 13.1043 11.4193 13.342 11.7125 13.342H13.6023C13.8955 13.342 14.1331 13.1047 14.1331 12.8111C14.1331 12.5176 13.8959 12.2803 13.6023 12.2803Z" fill="#707070"/>
<path d="M18.9581 12.2803H17.068C16.7748 12.2803 16.5371 12.5176 16.5371 12.8111C16.5371 13.1043 16.7744 13.342 17.068 13.342H18.9581C19.2513 13.342 19.489 13.1047 19.489 12.8111C19.4886 12.5176 19.2513 12.2803 18.9581 12.2803Z" fill="#707070"/>
<path d="M8.24817 15.9763H6.35801C6.06481 15.9763 5.82715 16.2136 5.82715 16.5072C5.82715 16.8004 6.06481 17.038 6.35801 17.038H8.24817C8.54137 17.038 8.77903 16.8007 8.77903 16.5072C8.77866 16.2136 8.541 15.9763 8.24817 15.9763Z" fill="#707070"/>
<path d="M13.6023 15.9763H11.7125C11.4193 15.9763 11.1816 16.2136 11.1816 16.5072C11.1816 16.8004 11.4193 17.038 11.7125 17.038H13.6023C13.8955 17.038 14.1331 16.8007 14.1331 16.5072C14.1331 16.2136 13.8959 15.9763 13.6023 15.9763Z" fill="#707070"/>
<path d="M18.9581 15.9763H17.068C16.7748 15.9763 16.5371 16.2136 16.5371 16.5072C16.5371 16.8004 16.7744 17.038 17.068 17.038H18.9581C19.2513 17.038 19.489 16.8007 19.489 16.5072C19.4886 16.2136 19.2513 15.9763 18.9581 15.9763Z" fill="#707070"/>
</svg>
