<svg width="25" height="25" viewBox="0 0 25 25" fill="none" xmlns="http://www.w3.org/2000/svg">
<path d="M0.873099 1.74677H2.68963C2.95087 1.74521 3.20413 1.83664 3.40411 2.0045C3.60413 2.17254 3.73787 2.40629 3.78134 2.66382L4.36661 6.2359V6.28835L6.11337 16.7689C6.15411 16.9691 6.26387 17.1487 6.42353 17.2764C6.5832 17.4041 6.78244 17.4717 6.98674 17.4676H20.9608C21.1603 17.4735 21.3558 17.4107 21.5147 17.29C21.6736 17.1692 21.7865 16.9976 21.8342 16.8038L24.4544 6.32324C24.5201 6.05811 24.4579 5.77755 24.2865 5.5651C24.115 5.35241 23.8539 5.23231 23.581 5.24031H5.9826L5.50224 2.38425C5.39404 1.71714 5.05152 1.11046 4.53588 0.673372C4.02044 0.236292 3.3658 -0.00252515 2.6899 2.01372e-05H0.873369C0.561252 2.01372e-05 0.272932 0.166507 0.116971 0.436711C-0.0389902 0.706915 -0.0389902 1.03989 0.116971 1.31009C0.272932 1.58029 0.561262 1.74678 0.873369 1.74678L0.873099 1.74677ZM22.4631 6.98706L20.2796 15.7209H7.72889L6.27025 6.98706H22.4631Z" fill="#7A7A7A"/>
<path d="M19.2138 19.2144C18.5188 19.2144 17.8524 19.4904 17.361 19.9817C16.8697 20.4732 16.5936 21.1395 16.5936 21.8345C16.5936 22.5295 16.8697 23.1958 17.361 23.6873C17.8524 24.1786 18.5188 24.4546 19.2138 24.4546C19.9088 24.4546 20.5751 24.1786 21.0666 23.6873C21.5579 23.1958 21.8339 22.5295 21.8339 21.8345C21.8339 21.1395 21.5579 20.4732 21.0666 19.9817C20.5751 19.4904 19.9088 19.2144 19.2138 19.2144ZM19.2138 22.7079C18.9822 22.7079 18.7599 22.6159 18.5962 22.4521C18.4324 22.2883 18.3404 22.0661 18.3404 21.8345C18.3404 21.6029 18.4324 21.3807 18.5962 21.2169C18.7599 21.0531 18.9822 20.9611 19.2138 20.9611C19.4454 20.9611 19.6676 21.0531 19.8314 21.2169C19.9951 21.3807 20.0872 21.6029 20.0872 21.8345C20.0872 22.0661 19.9951 22.2883 19.8314 22.4521C19.6676 22.6159 19.4454 22.7079 19.2138 22.7079Z" fill="#7A7A7A"/>
<path d="M6.11328 21.8345C6.11328 22.5295 6.38933 23.1958 6.88061 23.6873C7.37208 24.1786 8.03841 24.4546 8.73343 24.4546C9.42844 24.4546 10.0948 24.1786 10.5862 23.6873C11.0775 23.1958 11.3536 22.5295 11.3536 21.8345C11.3536 21.1395 11.0775 20.4732 10.5862 19.9817C10.0948 19.4904 9.42844 19.2144 8.73343 19.2144C8.03841 19.2144 7.3721 19.4904 6.88061 19.9817C6.38933 20.4732 6.11328 21.1395 6.11328 21.8345ZM9.60681 21.8345C9.60681 22.0661 9.51479 22.2883 9.35103 22.4521C9.18727 22.6159 8.96503 22.7079 8.73343 22.7079C8.50183 22.7079 8.27958 22.6159 8.11582 22.4521C7.95206 22.2883 7.86004 22.0661 7.86004 21.8345C7.86004 21.6029 7.95206 21.3807 8.11582 21.2169C8.27958 21.0531 8.50183 20.9611 8.73343 20.9611C8.96503 20.9611 9.18727 21.0531 9.35103 21.2169C9.51479 21.3807 9.60681 21.6029 9.60681 21.8345Z" fill="#7A7A7A"/>
</svg>
