<svg width="27" height="24" viewBox="0 0 27 24" fill="none" xmlns="http://www.w3.org/2000/svg">
<path d="M14.451 0C9.18631 0 4.66114 3.10473 2.8023 7.52203L2.06144 6.25365C1.96629 6.08009 1.82331 5.93557 1.64826 5.83611C1.47297 5.7369 1.27274 5.68667 1.06997 5.6911C0.683256 5.69947 0.330149 5.90455 0.140552 6.23051C-0.0489917 6.55671 -0.0466991 6.95529 0.146658 7.27931L2.15276 10.7536C2.29218 10.9929 2.52217 11.1706 2.7944 11.2486C3.06688 11.3269 3.35972 11.2996 3.6116 11.1728L7.17902 9.40812V9.40788C7.44997 9.28774 7.6586 9.06592 7.75655 8.79363C7.8545 8.52134 7.83363 8.22222 7.69854 7.96517C7.56344 7.70812 7.32581 7.51562 7.04059 7.43192C6.75538 7.34822 6.44728 7.38071 6.1875 7.52203L4.87674 8.1727C6.44418 4.62433 10.1374 2.11764 14.451 2.11764C20.1957 2.11764 24.8114 6.53726 24.8114 11.9999C24.8114 17.4627 20.1955 21.8823 14.451 21.8823C9.53666 21.8823 5.44338 18.6188 4.36351 14.272V14.2718C4.27192 13.9034 3.98417 13.6102 3.60838 13.5029C3.23286 13.3953 2.82681 13.4901 2.5429 13.7511C2.25897 14.012 2.14041 14.3998 2.23201 14.7681C3.54661 20.0635 8.53518 24 14.4506 24C21.3623 24 27 18.6225 27 12.0001C27 5.37739 21.3626 0.000100015 14.4506 0.000100015L14.451 0ZM14.5879 5.27191H14.5876C14.2955 5.27487 14.0167 5.39082 13.8131 5.59393C13.6098 5.7968 13.4989 6.07031 13.5048 6.35294V12.0001V11.9999C13.5048 12.3216 13.6556 12.6262 13.9151 12.8273L17.5625 15.6509V15.6506C17.7892 15.8262 18.0787 15.9074 18.3674 15.8764C18.6559 15.8454 18.92 15.7048 19.1015 15.4854C19.2829 15.2658 19.3666 14.9857 19.3345 14.7065C19.3024 14.4273 19.1572 14.1718 18.9302 13.9962L15.6933 11.4924V6.35269V6.35294C15.6994 6.06637 15.5854 5.78965 15.3771 5.58605C15.1687 5.3822 14.8837 5.26896 14.5876 5.27191H14.5879Z" fill="#7A7A7A"/>
</svg>
