<svg width="24" height="24" viewBox="0 0 24 24" fill="none" xmlns="http://www.w3.org/2000/svg">
<path d="M17.9676 24H6.03284C4.43317 23.9982 2.8998 23.3619 1.76878 22.2307C0.637765 21.0997 0.00163637 19.5659 0 17.9665V10.2073C0.000913144 8.23881 0.961206 6.39422 2.57346 5.26462L8.54061 1.08645C9.55549 0.37912 10.763 0 12 0C13.2371 0 14.4445 0.379139 15.4596 1.08645L21.4267 5.26462C23.0388 6.39436 23.9991 8.23891 24 10.2073V17.9665C23.9984 19.5659 23.3622 21.0997 22.2312 22.2307C21.1002 23.3619 19.5668 23.9982 17.9672 24H17.9676ZM12.0005 2.18084C11.2108 2.17974 10.4399 2.4221 9.79262 2.87447L3.82453 7.05264H3.82435C2.79559 7.77386 2.18269 8.95105 2.18213 10.2074V17.9665C2.18323 18.9876 2.58922 19.9665 3.31114 20.6886C4.03306 21.4107 5.01198 21.8169 6.03308 21.8182H17.9679C18.9888 21.8169 19.9676 21.4109 20.6896 20.689C21.4116 19.9671 21.8175 18.9882 21.8188 17.9673V10.2072C21.8183 8.95072 21.2055 7.77329 20.1766 7.05232L14.2094 2.87414C13.5618 2.42177 12.7906 2.17963 12.0007 2.1807L12.0005 2.18084ZM15.2732 19.6351H8.72772C8.43843 19.6351 8.16083 19.5203 7.95628 19.3157C7.75174 19.1112 7.63687 18.8336 7.63687 18.5443V15.2716C7.63687 13.7127 8.46856 12.2721 9.81857 11.4926C11.1688 10.7132 12.8322 10.7132 14.1824 11.4926C15.5324 12.2721 16.3641 13.7127 16.3641 15.2716V18.5443C16.3643 18.8338 16.2494 19.1112 16.0446 19.3159C15.8401 19.5206 15.5627 19.6355 15.2732 19.6355V19.6351ZM9.81848 17.4533H14.1821V15.2714L14.1823 15.2716C14.1823 14.4921 13.7664 13.7718 13.0912 13.3821C12.4162 12.9924 11.5845 12.9924 10.9095 13.3821C10.2343 13.7718 9.81847 14.4921 9.81847 15.2716L9.81848 17.4533Z" fill="#2C2C2C"/>
</svg>
