<svg width="27" height="24" viewBox="0 0 27 24" fill="none" xmlns="http://www.w3.org/2000/svg">
<path d="M4.14064 18.7923H9.33242L11.8485 22.7736C12.1034 23.1878 12.5493 23.4426 13.027 23.4426C13.5047 23.4426 13.9505 23.1878 14.2054 22.7736L16.7215 18.7923H21.9773C24.2706 18.7923 26.118 16.9449 26.118 14.6516V4.1407C26.118 1.84742 24.2706 0 21.9773 0L4.1407 0.000222176C1.84742 0.000222176 0 1.84758 0 4.14092V14.6518C0 16.9448 1.87938 18.7922 4.1407 18.7922L4.14064 18.7923ZM1.91112 4.14076C1.91112 2.89856 2.89845 1.91124 4.14064 1.91124H21.9772C23.2194 1.91124 24.2068 2.89856 24.2068 4.14076V14.6516C24.2068 15.8938 23.2194 16.8811 21.9772 16.8811H16.2441C15.9255 16.8811 15.6071 17.0404 15.4478 17.327L13.0589 21.0856L10.6701 17.3273C10.479 17.0407 10.1924 16.8814 9.87384 16.8814L4.14064 16.8811C2.89845 16.8811 1.91112 15.8938 1.91112 14.6516V4.14076Z" fill="#21418A"/>
<path d="M5.16016 4.36372H20.8627V6.2749H5.16016V4.36372Z" fill="#21418A"/>
<path d="M5.16016 8.3451H20.8627V10.2563H5.16016V8.3451Z" fill="#21418A"/>
<path d="M5.16016 12.3265H14.0148V14.2377H5.16016V12.3265Z" fill="#21418A"/>
</svg>
