<svg width="23" height="22" viewBox="0 0 23 22" fill="none" xmlns="http://www.w3.org/2000/svg">
<path d="M9.05173 17.738L12.7622 21.5611C12.9871 21.8422 13.2964 21.9826 13.6336 21.9826C14.0272 21.9826 14.3644 21.7858 14.5893 21.4485C14.6456 21.3922 14.6736 21.3079 14.7017 21.2236L15.6857 17.7097H17.9908C20.324 17.7097 22.2074 15.8263 22.2074 13.4931V4.2166C22.2074 1.88342 20.324 0 17.9908 0H4.2166C1.88342 0 0 1.88342 0 4.2166V13.4931C0 15.8263 1.88342 17.7097 4.2166 17.7097L9.05164 17.7099L9.05173 17.738ZM1.68673 13.5214V4.24487C1.68673 2.83933 2.81105 1.71501 4.21659 1.71501H17.9908C19.3964 1.71501 20.5207 2.83933 20.5207 4.24487V13.5214C20.5207 14.9269 19.3964 16.0513 17.9908 16.0513L15.0394 16.0515C14.6739 16.0515 14.3366 16.3044 14.2242 16.6699L13.3529 19.7622L10.0357 16.3044C9.86706 16.1358 9.6702 16.0514 9.41726 16.0514H4.21679C2.81125 16.0514 1.68673 14.9269 1.68673 13.5214V13.5214Z" fill="#2C2C2C"/>
<path d="M7.92715 8.85506C7.92715 7.44952 6.80283 6.3252 5.39729 6.3252C3.99176 6.3252 2.86743 7.44952 2.86743 8.85506C2.86743 10.2606 3.99176 11.3849 5.39729 11.3849C6.80283 11.3849 7.92715 10.2606 7.92715 8.85506ZM4.55392 8.85506C4.55392 8.3772 4.91942 8.01169 5.39729 8.01169C5.87515 8.01169 6.24066 8.37718 6.24066 8.85506C6.24066 9.33293 5.87516 9.69843 5.39729 9.69843C4.91944 9.69823 4.55392 9.33293 4.55392 8.85506Z" fill="#2C2C2C"/>
<path d="M11.0196 11.3849C12.4251 11.3849 13.5495 10.2606 13.5495 8.85506C13.5495 7.44952 12.4251 6.3252 11.0196 6.3252C9.61407 6.3252 8.48975 7.44952 8.48975 8.85506C8.48975 10.2606 9.61407 11.3849 11.0196 11.3849ZM11.0196 8.01169C11.4975 8.01169 11.863 8.37718 11.863 8.85506C11.863 9.33293 11.4975 9.69843 11.0196 9.69843C10.5418 9.69843 10.1762 9.33293 10.1762 8.85506C10.1762 8.37718 10.5417 8.01169 11.0196 8.01169Z" fill="#2C2C2C"/>
<path d="M16.6416 11.3849C18.0471 11.3849 19.1714 10.2606 19.1714 8.85506C19.1714 7.44952 18.0471 6.3252 16.6416 6.3252C15.236 6.3252 14.1117 7.44952 14.1117 8.85506C14.1117 10.2606 15.236 11.3849 16.6416 11.3849ZM16.6416 8.01169C17.1194 8.01169 17.4849 8.37718 17.4849 8.85506C17.4849 9.33293 17.1194 9.69843 16.6416 9.69843C16.1637 9.69843 15.7982 9.33293 15.7982 8.85506C15.7982 8.37718 16.1637 8.01169 16.6416 8.01169Z" fill="#2C2C2C"/>
</svg>
