<svg width="19" height="22" viewBox="0 0 19 22" fill="none" xmlns="http://www.w3.org/2000/svg">
<path d="M12.5069 19.5116C12.3794 20.1086 12.087 20.6434 11.6821 21.0621C11.1197 21.6435 10.3474 22 9.50013 22C8.65287 22 7.88058 21.6434 7.31816 21.0621C6.91325 20.6434 6.62081 20.1086 6.49332 19.5116H2.03947C1.47705 19.5116 0.967185 19.2791 0.599812 18.8915C0.232439 18.5117 0 17.9846 0 17.4031C0 16.8216 0.232446 16.2945 0.599812 15.9147C0.85467 15.6512 1.1772 15.4573 1.53702 15.3565C1.76946 14.5814 1.96435 13.6666 2.10685 12.7442C2.30174 11.5194 2.40683 10.2868 2.40683 9.3644C2.40683 7.34118 3.20169 5.51164 4.49126 4.17828C5.05368 3.59681 5.71345 3.10853 6.44079 2.74419C6.53831 2.04655 6.85315 1.41861 7.31803 0.937948C7.88045 0.356479 8.65274 0 9.5 0C10.3473 0 11.1195 0.35664 11.682 0.937948C12.1468 1.41857 12.4618 2.04655 12.5592 2.74419C13.2865 3.1085 13.9463 3.59697 14.5087 4.17828C15.7983 5.51156 16.5932 7.3411 16.5932 9.3644C16.5932 10.2868 16.6981 11.5194 16.8932 12.7442C17.0356 13.6666 17.2305 14.5814 17.463 15.3565C17.8229 15.4574 18.1453 15.6512 18.4002 15.9147C18.7676 16.2945 19 16.8216 19 17.4031C19 17.9846 18.7676 18.5117 18.4002 18.8915C18.0328 19.2792 17.5229 19.5116 16.9605 19.5116H12.5067H12.5069ZM8.08312 2.17836C8.54043 2.07753 9.01291 2.02336 9.50021 2.02336C9.98751 2.02336 10.46 2.07769 10.9173 2.17836C10.8573 2.08536 10.7974 2.00004 10.7224 1.92254C10.4074 1.60473 9.9801 1.40322 9.50021 1.40322C9.02032 1.40322 8.59299 1.60471 8.27802 1.92254C8.20306 2.00004 8.14308 2.08536 8.08312 2.17836ZM6.41102 18.1087H16.9606C17.1481 18.1087 17.313 18.0234 17.4405 17.8994C17.5605 17.7754 17.643 17.5971 17.643 17.4033C17.643 17.2095 17.5605 17.0311 17.4405 16.9071C17.3206 16.7753 17.1481 16.6978 16.9606 16.6978C16.6832 16.6978 16.4208 16.5195 16.3233 16.2327C15.9933 15.2869 15.7309 14.1241 15.551 12.9769C15.3411 11.6591 15.236 10.349 15.236 9.36443C15.236 7.72868 14.5912 6.24812 13.5489 5.17853C12.5066 4.10092 11.0746 3.43432 9.50017 3.43432C7.92576 3.43432 6.49351 4.10096 5.45139 5.17853C4.40908 6.24828 3.76432 7.72888 3.76432 9.36443C3.76432 10.3489 3.65937 11.659 3.44934 12.9769C3.26944 14.101 3.022 15.2327 2.69962 16.1707C2.62466 16.473 2.36223 16.6978 2.03985 16.6978C1.85238 16.6978 1.68747 16.7831 1.55996 16.9071C1.44003 17.0311 1.3575 17.2095 1.3575 17.4033C1.3575 17.5971 1.44003 17.7754 1.55996 17.8994C1.68746 18.0234 1.85237 18.1087 2.03985 18.1087H6.41102ZM10.7224 20.0778C10.8723 19.915 10.9998 19.7211 11.0897 19.5118H7.9106C8.00055 19.7212 8.12806 19.915 8.27798 20.0778C8.59295 20.3956 9.02028 20.5971 9.50017 20.5971C9.98006 20.5971 10.4074 20.3956 10.7224 20.0778Z" fill="#2C2C2C"/>
</svg>
