<svg width="24" height="25" viewBox="0 0 24 25" fill="none" xmlns="http://www.w3.org/2000/svg">
<path d="M8.75601 11.9699C7.72784 11.9629 6.74234 11.5589 6.0054 10.8421C4.5436 9.44333 3.18796 6.95584 3.45916 4.55501H3.45898C3.52512 3.72457 3.82035 2.92885 4.3117 2.25627C5.34754 0.838342 6.99791 0 8.7539 0C10.5099 0 12.1604 0.838342 13.1963 2.25627C13.6908 2.92952 13.9899 3.72646 14.0608 4.55883V4.57848C14.2927 7.01087 12.9447 9.47838 11.5105 10.8656C10.769 11.575 9.78207 11.9706 8.75601 11.9699L8.75601 11.9699ZM8.75601 1.96576V1.96558C7.62823 1.9726 6.57133 2.51709 5.911 3.43142C5.61787 3.82068 5.44194 4.28557 5.40403 4.77129C5.21546 6.4178 6.24502 8.35499 7.36876 9.41971C7.7382 9.79529 8.24289 10.0068 8.76966 10.0068C9.29643 10.0068 9.80115 9.79529 10.1706 9.41971C11.4594 8.18982 12.2611 6.27616 12.1353 4.76321C12.1034 4.28135 11.9357 3.81803 11.6518 3.4272C10.9712 2.50412 9.8911 1.96104 8.74402 1.9654L8.75601 1.96576Z" fill="#7A7A7A"/>
<path d="M23.378 11.294C23.1713 10.5633 22.6821 9.94517 22.0183 9.57625C21.3545 9.20752 20.571 9.1186 19.8415 9.32926C19.1115 9.53363 18.496 10.0257 18.136 10.6928L17.7155 11.4552L13.2166 19.6087C13.1254 19.7787 13.0833 19.9704 13.0947 20.1629L13.3736 23.546H13.3738C13.4026 23.8723 13.5922 24.1628 13.8792 24.3205C14.1664 24.4784 14.5132 24.4826 14.804 24.3319L17.818 22.7601C17.9827 22.6679 18.1186 22.5319 18.2109 22.3672L22.7021 14.2335L23.1423 13.4713C23.5091 12.8064 23.594 12.0223 23.378 11.2942L23.378 11.294ZM16.6467 21.1607L15.2125 21.9073L15.0788 20.2962L18.4778 14.1389L20.0496 15.0034L16.6467 21.1607ZM21.4173 12.5159L20.9968 13.2743L19.425 12.4098L19.8415 11.6474V11.6476C19.9609 11.4441 20.1539 11.2945 20.3807 11.2294C20.6074 11.1643 20.8505 11.1889 21.0596 11.2978C21.2694 11.4132 21.425 11.6071 21.492 11.8369C21.559 12.0667 21.5322 12.3138 21.4171 12.5238L21.4173 12.5159Z" fill="#7A7A7A"/>
<path d="M11.8056 23.6797L11.7112 22.5009H3.64036C3.19707 22.5009 2.77184 22.3251 2.45803 22.012C2.1442 21.6988 1.96736 21.2741 1.96633 20.8309V20.045C1.93405 18.5969 2.62311 17.2273 3.80544 16.3906C4.51346 15.9247 5.343 15.6775 6.19046 15.6792H11.2987C12.0036 15.6824 12.697 15.8578 13.3186 16.1901L14.2695 14.4729V14.473C13.3615 13.9922 12.3497 13.7414 11.3224 13.7421H6.21417C4.96955 13.7338 3.75021 14.0935 2.70906 14.7755C0.971664 15.9722 -0.0461292 17.9634 0.00160792 20.0724V20.8583C0.00266043 21.8226 0.386482 22.7471 1.06889 23.4285C1.75109 24.1101 2.67592 24.493 3.64041 24.493H12.0103C11.8986 24.2346 11.8297 23.9599 11.806 23.6796L11.8056 23.6797Z" fill="#7A7A7A"/>
</svg>
