<svg width="25" height="25" viewBox="0 0 25 25" fill="none" xmlns="http://www.w3.org/2000/svg">
<path d="M15.1265 9.7113H10.2138C9.88632 9.7113 9.66797 9.49294 9.66797 9.1655C9.66797 8.83806 9.88634 8.61969 10.2138 8.61969H15.1265C15.4539 8.61969 15.6723 8.83806 15.6723 9.1655C15.6723 9.49294 15.3995 9.7113 15.1265 9.7113Z" fill="white"/>
<path d="M15.1265 11.8948H10.2138C9.88632 11.8948 9.66797 11.6764 9.66797 11.349C9.66797 11.0215 9.88634 10.8032 10.2138 10.8032H15.1265C15.4539 10.8032 15.6723 11.0215 15.6723 11.349C15.6723 11.6764 15.3995 11.8948 15.1265 11.8948Z" fill="white"/>
<path d="M7.92129 19.2092H2.95401C2.62656 19.2092 2.4082 18.9908 2.4082 18.6634C2.4082 18.336 2.62657 18.1176 2.95401 18.1176H7.92129C8.24874 18.1176 8.46709 18.336 8.46709 18.6634C8.4669 18.9908 8.24854 19.2092 7.92109 19.2092H7.92129Z" fill="white"/>
<path d="M7.92129 21.611H2.95401C2.62656 21.611 2.4082 21.3926 2.4082 21.0652C2.4082 20.7377 2.62657 20.5194 2.95401 20.5194H7.92129C8.24874 20.5194 8.46709 20.7377 8.46709 21.0652C8.4669 21.3926 8.24854 21.611 7.92109 21.611H7.92129Z" fill="white"/>
<path d="M6.88334 10.9668C7.04707 10.6393 7.2108 10.2572 7.2108 9.82049C7.2108 8.61956 6.22826 7.63702 5.02733 7.63702C3.8264 7.63702 2.84386 8.61956 2.84386 9.82049C2.84386 10.2572 2.95295 10.6393 3.17132 10.9668C2.68015 11.0759 2.29785 11.458 2.29785 12.004V14.7332C2.29785 15.0062 2.57086 15.279 2.84366 15.279C3.11666 15.279 3.38946 15.006 3.38946 14.7332V12.0586H6.66454L6.66511 14.7332C6.66511 15.0062 6.93812 15.279 7.21092 15.279C7.48393 15.279 7.75673 15.006 7.75673 14.7332V12.004C7.75673 11.5126 7.37464 11.0761 6.88326 10.9668H6.88334ZM5.02753 10.9668C4.42709 10.9668 3.93592 10.4756 3.93592 9.87517C3.93592 9.27473 4.42709 8.78356 5.02753 8.78356C5.62798 8.78356 6.11915 9.27473 6.11915 9.87517C6.11915 10.4756 5.62798 10.9668 5.02753 10.9668Z" fill="white"/>
<path d="M23.581 10.9718H18.5591C18.3954 10.9718 18.2317 11.0265 18.1224 11.1902L18.0133 11.3539L18.0131 4.80367C18.0131 3.98484 17.358 3.32996 16.5394 3.32996H14.3013C14.3013 2.45649 13.5371 1.6923 12.6636 1.6923H11.1355C10.9171 0.709757 10.0437 0 8.95202 0C7.91485 0 7.04158 0.709562 6.76855 1.6921H5.29484C4.42137 1.6921 3.65718 2.40166 3.65718 3.32976H1.47371C0.654879 3.32976 0 3.98484 0 4.80347V23.5263C0 24.3451 0.655074 25 1.47371 25H23.5808C24.345 25 25.0001 24.3996 25.0001 23.5807L24.9999 12.3366C24.9455 11.5724 24.345 10.972 23.5808 10.972L23.581 10.9718ZM7.96953 1.6923C8.13326 1.31021 8.51534 1.09186 8.95207 1.09186C9.3888 1.09186 9.7709 1.31023 9.93461 1.6923C10.0437 1.85603 10.0983 2.01976 10.0983 2.23811C10.0983 2.45647 10.0437 2.6202 9.93461 2.78391C9.77088 3.05692 9.55252 3.22064 9.27954 3.32972C9.17045 3.38436 9.06117 3.38436 8.89745 3.38436C8.78836 3.38436 8.62444 3.38436 8.51536 3.32972C8.24235 3.22063 8.02419 3.05671 7.86029 2.78391C7.7512 2.62019 7.69656 2.45646 7.69656 2.23811C7.80584 2.01974 7.86026 1.85602 7.96953 1.6923ZM4.80353 4.42157V3.32996C4.80353 3.05696 5.07653 2.78416 5.34933 2.78416L6.7686 2.78397C6.82324 2.94769 6.87769 3.16605 6.98697 3.32977C7.25998 3.87558 7.8058 4.25768 8.40624 4.42138H9.49785C10.0983 4.25766 10.6441 3.87558 10.9171 3.32977C11.0262 3.16605 11.0809 3.00232 11.1355 2.78397H12.6092C12.8822 2.78397 13.155 3.00233 13.155 3.32977V4.42138C13.155 4.74884 12.882 4.96719 12.6092 4.96719L5.34933 4.96738C5.02188 4.96738 4.80353 4.69438 4.80353 4.42157ZM1.03708 23.5265V4.80367C1.03708 4.58531 1.20081 4.42158 1.41917 4.42158H3.65727C3.65727 5.34949 4.42147 6.05925 5.29493 6.05925H12.6094C13.4829 6.05925 14.247 5.34968 14.247 4.42158H16.4852C16.7035 4.42158 16.8672 4.58531 16.8672 4.80367V12.7732L16.2668 13.592H10.8628C10.0986 13.592 9.44357 14.2471 9.44357 15.0113V23.9633L1.47409 23.9631C1.25572 23.9086 1.03736 23.7449 1.03736 23.5265L1.03708 23.5265ZM23.8538 23.6356C23.8538 23.7993 23.6901 23.963 23.5264 23.963H10.5896V16.9215H23.9085V23.6355L23.8538 23.6356ZM23.8538 15.8299H10.5895V14.9564C10.5895 14.7927 10.7533 14.6289 10.917 14.6289H16.5939C16.7576 14.6289 16.9213 14.5743 17.0306 14.4106L18.832 12.0088H23.6355C23.7992 12.0088 23.9629 12.1725 23.9629 12.2818L23.9631 15.8299L23.8538 15.8299Z" fill="white"/>
</svg>
